<svg width="230" height="44" viewBox="0 0 230 44" fill="none" xmlns="http://www.w3.org/2000/svg">
<path d="M1.264 40.984C0.453333 40.984 0.0480001 40.152 0.0480001 38.488C0.0480001 37.6773 0.410667 36.3973 1.136 34.648C1.86133 32.856 2.82133 30.7867 4.016 28.44C5.25333 26.0507 6.64 23.576 8.176 21.016C9.712 18.4133 11.2907 15.8747 12.912 13.4C14.5333 10.9253 16.0907 8.68533 17.584 6.68C19.0773 4.632 20.4213 3.01066 21.616 1.816C22.8107 0.621332 23.728 0.0239983 24.368 0.0239983C24.6667 0.0239983 25.072 0.173331 25.584 0.471996C26.096 0.770664 26.5653 1.112 26.992 1.496C27.4187 1.88 27.632 2.22133 27.632 2.52C27.632 3.288 27.5253 4.12 27.312 5.016C27.1413 5.86933 26.992 6.68 26.864 7.448C26.7787 7.87467 26.608 8.83467 26.352 10.328C26.096 11.7787 25.84 13.464 25.584 15.384C25.3707 17.2613 25.264 19.0533 25.264 20.76C25.264 22.3813 25.4347 23.768 25.776 24.92C26.1173 26.072 26.736 26.648 27.632 26.648C28.784 26.648 30.192 26.1147 31.856 25.048C33.52 23.9813 35.2907 22.616 37.168 20.952C39.088 19.2453 40.9867 17.4533 42.864 15.576C44.784 13.656 46.5333 11.864 48.112 10.2C49.7333 8.49333 51.0773 7.10667 52.144 6.04C53.2533 4.97333 53.9147 4.44 54.128 4.44C54.256 4.44 54.32 4.52533 54.32 4.696C54.32 5.03733 54.1707 5.464 53.872 5.976C53.36 6.95733 52.5493 8.19466 51.44 9.688C50.3733 11.1387 49.1147 12.7173 47.664 14.424C46.2133 16.1307 44.656 17.816 42.992 19.48C41.3707 21.144 39.728 22.6587 38.064 24.024C36.4 25.3893 34.8 26.4987 33.264 27.352C31.728 28.1627 30.3413 28.568 29.104 28.568C27.1413 28.568 25.648 28.0347 24.624 26.968C23.6 25.8587 22.896 24.4507 22.512 22.744C22.128 20.9947 21.936 19.1813 21.936 17.304C21.936 15.128 22.0427 13.2507 22.256 11.672C22.4693 10.0507 22.7253 8.216 23.024 6.168C21.104 8.17333 19.0347 10.5413 16.816 13.272C14.64 15.96 12.528 18.84 10.48 21.912C8.47467 24.984 6.72533 28.0773 5.232 31.192C3.73867 34.264 2.736 37.1867 2.224 39.96C2.18133 40.216 2.096 40.4507 1.968 40.664C1.84 40.8773 1.60533 40.984 1.264 40.984ZM46.832 38.936C45.8933 38.936 45.2747 38.488 44.976 37.592C44.72 36.696 44.592 35.8853 44.592 35.16C44.592 34.3493 44.784 33.1333 45.168 31.512C45.5947 29.848 46.1493 27.9493 46.832 25.816C47.5147 23.6827 48.2827 21.464 49.136 19.16C50.032 16.8133 50.9707 14.5307 51.952 12.312C52.976 10.0933 53.9787 8.10933 54.96 6.36C55.9413 4.568 56.88 3.13866 57.776 2.072C58.672 1.00533 59.4613 0.471996 60.144 0.471996C60.4853 0.471996 61.0187 0.642663 61.744 0.983997C62.4693 1.32533 62.832 1.73066 62.832 2.2C62.832 2.328 62.448 2.98933 61.68 4.184C60.912 5.336 59.9093 6.85067 58.672 8.728C57.4773 10.6053 56.1973 12.696 54.832 15C53.4667 17.2613 52.1653 19.608 50.928 22.04C49.7333 24.472 48.752 26.8187 47.984 29.08C47.216 31.2987 46.832 33.2827 46.832 35.032V35.544C46.832 35.8427 46.8747 36.1413 46.96 36.44C47.0453 36.696 47.2373 36.824 47.536 36.824C48.048 36.824 48.304 37.08 48.304 37.592C48.304 37.8907 48.176 38.1893 47.92 38.488C47.664 38.7867 47.3013 38.936 46.832 38.936ZM67.78 14.872C66.7987 14.872 66.308 14.5093 66.308 13.784C66.308 13.272 66.5853 12.7173 67.14 12.12C67.6947 11.5227 68.5053 11.096 69.572 10.84C70.212 10.6693 70.724 10.584 71.108 10.584C71.5347 10.5413 71.94 10.456 72.324 10.328C72.1533 11.1387 71.7907 12.0133 71.236 12.952C70.724 13.8907 70.0413 14.4667 69.188 14.68C68.7613 14.808 68.292 14.872 67.78 14.872ZM57.54 40.344C56.8573 40.344 56.2173 40.0667 55.62 39.512C55.0653 38.9573 54.724 38.36 54.596 37.72C54.724 36.9093 55.0013 35.928 55.428 34.776C55.8973 33.5813 56.4307 32.344 57.028 31.064C57.6253 29.784 58.2227 28.5893 58.82 27.48C59.4173 26.328 59.9293 25.4107 60.356 24.728C59.5453 25.4533 58.6707 26.264 57.732 27.16C56.836 28.056 55.9827 28.888 55.172 29.656C55.1293 29.6987 55.0227 29.784 54.852 29.912C54.724 30.04 54.596 30.104 54.468 30.104C54.1693 30.104 54.02 29.976 54.02 29.72C54.02 29.5067 54.1053 29.3147 54.276 29.144C55.428 27.864 56.6227 26.584 57.86 25.304C59.14 24.024 60.3773 22.7013 61.572 21.336C61.956 20.8667 62.276 20.504 62.532 20.248C62.8307 19.9493 63.2787 19.8 63.876 19.8C64.132 19.8 64.516 19.864 65.028 19.992C65.5827 20.0773 66.0307 20.248 66.372 20.504C66.756 20.76 66.82 21.08 66.564 21.464C66.2653 21.9333 65.7533 22.7013 65.028 23.768C64.3027 24.8347 63.4707 26.0507 62.532 27.416C61.636 28.7813 60.74 30.168 59.844 31.576C58.9907 32.9413 58.2867 34.1787 57.732 35.288C57.1773 36.3973 56.9 37.2293 56.9 37.784C56.9 38.04 56.9853 38.168 57.156 38.168C57.412 38.168 57.8387 37.9333 58.436 37.464C59.076 36.9947 59.6947 36.504 60.292 35.992C60.932 35.4373 61.3587 35.0747 61.572 34.904C62.8093 33.8373 64.0253 32.7493 65.22 31.64C66.4147 30.488 67.5453 29.2933 68.612 28.056C68.6973 27.9707 68.804 27.8427 68.932 27.672C69.1027 27.5013 69.2733 27.416 69.444 27.416C69.6573 27.416 69.764 27.544 69.764 27.8C69.764 28.0987 69.6573 28.3973 69.444 28.696C68.8893 29.3787 68.2707 30.0613 67.588 30.744C66.9053 31.384 66.2653 32.024 65.668 32.664C64.5587 33.7733 63.4707 34.8827 62.404 35.992C61.38 37.0587 60.356 38.168 59.332 39.32C59.1187 39.576 58.8413 39.8107 58.5 40.024C58.2013 40.2373 57.8813 40.344 57.54 40.344ZM79.875 39.704C79.235 39.704 78.5097 39.512 77.699 39.128C76.931 38.7867 76.547 38.232 76.547 37.464C76.547 36.568 76.8883 35.5013 77.571 34.264C78.2537 33.0267 79.0643 31.7467 80.003 30.424C80.9417 29.0587 81.8377 27.7573 82.691 26.52C83.587 25.2827 84.227 24.2373 84.611 23.384C84.355 23.512 83.9283 23.768 83.331 24.152C82.7763 24.4933 82.2217 24.856 81.667 25.24C81.1123 25.5813 80.707 25.8587 80.451 26.072C78.6163 27.4373 77.0163 28.8453 75.651 30.296C74.3283 31.7467 72.9843 33.4107 71.619 35.288C71.2777 35.8 70.915 36.3333 70.531 36.888C70.1897 37.4427 69.827 37.976 69.443 38.488C69.2723 38.7013 68.9737 38.9147 68.547 39.128C68.163 39.3413 67.8003 39.448 67.459 39.448C66.9043 39.448 66.627 39.1493 66.627 38.552C66.627 38.04 66.883 37.2507 67.395 36.184C67.9497 35.1173 68.6323 33.9013 69.443 32.536C70.2537 31.1707 71.107 29.8267 72.003 28.504C72.899 27.1387 73.7097 25.9227 74.435 24.856C75.1603 23.7467 75.6723 22.9573 75.971 22.488C75.8857 22.616 75.651 22.8507 75.267 23.192C74.883 23.4907 74.499 23.8107 74.115 24.152C73.7737 24.4507 73.5177 24.664 73.347 24.792C72.5363 25.56 71.747 26.3493 70.979 27.16C70.211 27.9707 69.443 28.7813 68.675 29.592C68.5897 29.6773 68.419 29.8053 68.163 29.976C67.9497 30.1467 67.7577 30.232 67.587 30.232C67.3737 30.232 67.267 30.1253 67.267 29.912C67.267 29.6987 67.5657 29.2507 68.163 28.568C68.7603 27.8853 69.507 27.0747 70.403 26.136C71.299 25.1973 72.2163 24.2373 73.155 23.256C74.1363 22.2747 74.9897 21.4 75.715 20.632C76.4403 19.864 76.931 19.3307 77.187 19.032C77.6137 18.4773 78.0617 18.0293 78.531 17.688C79.043 17.3467 79.6403 17.176 80.323 17.176C80.707 17.176 81.1763 17.368 81.731 17.752C82.2857 18.0933 82.563 18.4987 82.563 18.968C82.563 19.1387 82.5203 19.2453 82.435 19.288C81.155 20.3547 79.8963 21.6133 78.659 23.064C77.4643 24.5147 76.3337 26.008 75.267 27.544C74.2003 29.08 73.219 30.5093 72.323 31.832C73.347 30.68 74.499 29.5493 75.779 28.44C77.059 27.288 78.2963 26.2213 79.491 25.24L84.035 21.528C84.3337 21.272 84.6323 20.9947 84.931 20.696C85.2723 20.3973 85.5923 20.1413 85.891 19.928C86.2323 19.7147 86.595 19.6293 86.979 19.672C87.4057 19.672 87.8323 19.672 88.259 19.672C88.7283 19.672 89.1763 19.8 89.603 20.056C90.0723 20.312 90.307 20.7173 90.307 21.272C90.307 21.8267 90.1577 22.2533 89.859 22.552C89.603 22.808 89.3043 23.1067 88.963 23.448C88.2377 24.1307 87.3417 25.0267 86.275 26.136C85.251 27.2453 84.227 28.44 83.203 29.72C82.179 31 81.3257 32.3013 80.643 33.624C79.9603 34.904 79.619 36.0987 79.619 37.208C79.619 37.336 79.619 37.464 79.619 37.592C79.619 37.72 79.6403 37.848 79.683 37.976C80.579 37.6347 81.5603 37.08 82.627 36.312C83.7363 35.5013 84.8457 34.6053 85.955 33.624C87.0643 32.6427 88.0883 31.6613 89.027 30.68C90.0083 29.6987 90.819 28.824 91.459 28.056C91.5443 27.9707 91.6297 27.864 91.715 27.736C91.843 27.608 91.9923 27.544 92.163 27.544C92.3763 27.544 92.483 27.6933 92.483 27.992C92.483 28.1627 92.419 28.3547 92.291 28.568C91.4803 29.6347 90.3923 30.8933 89.027 32.344C87.6617 33.7947 86.2537 35.1813 84.803 36.504C83.3523 37.784 82.051 38.7653 80.899 39.448C80.6003 39.6187 80.259 39.704 79.875 39.704ZM100.958 39.576C100.574 39.576 100.126 39.4053 99.614 39.064C99.1447 38.7653 98.718 38.4027 98.334 37.976C97.95 37.5067 97.758 37.08 97.758 36.696C97.758 36.184 97.9287 35.5227 98.27 34.712C98.6113 33.9013 99.038 33.048 99.55 32.152C100.062 31.2133 100.553 30.36 101.022 29.592C101.534 28.824 101.918 28.2267 102.174 27.8C101.833 28.2267 101.299 28.888 100.574 29.784C99.8487 30.6373 99.038 31.5973 98.142 32.664C97.2887 33.688 96.3927 34.6907 95.454 35.672C94.558 36.6107 93.726 37.4 92.958 38.04C92.19 38.6373 91.5713 38.936 91.102 38.936C90.8033 38.936 90.2913 38.6587 89.566 38.104C88.8833 37.5067 88.542 36.6107 88.542 35.416C88.542 34.4347 88.8407 33.24 89.438 31.832C90.078 30.424 90.91 28.9733 91.934 27.48C92.958 25.944 94.0673 24.5147 95.262 23.192C96.4993 21.8693 97.7153 20.8027 98.91 19.992C100.147 19.1813 101.257 18.776 102.238 18.776C103.006 18.776 103.753 19.032 104.478 19.544C105.203 20.0133 105.63 20.888 105.758 22.168C106.697 20.9307 107.635 19.736 108.574 18.584C109.555 17.3893 110.921 15.832 112.67 13.912C112.883 13.656 113.289 13.208 113.886 12.568C114.483 11.8853 115.166 11.16 115.934 10.392C116.702 9.58133 117.449 8.856 118.174 8.216C118.942 7.53333 119.582 7.10667 120.094 6.936C120.307 6.85066 120.734 6.97867 121.374 7.32C122.014 7.61866 122.334 8.00266 122.334 8.472C122.334 8.728 122.227 8.96267 122.014 9.176C121.758 9.47467 121.31 9.92267 120.67 10.52C120.073 11.1173 119.39 11.7573 118.622 12.44C117.854 13.1227 117.129 13.7627 116.446 14.36C115.806 14.9147 115.358 15.3627 115.102 15.704C111.518 19.5013 108.446 23.128 105.886 26.584C103.326 30.04 101.619 33.0907 100.766 35.736C100.553 36.376 100.446 36.824 100.446 37.08C100.446 37.464 100.553 37.656 100.766 37.656C100.937 37.656 101.15 37.5707 101.406 37.4C101.662 37.1867 101.961 36.952 102.302 36.696C102.985 36.1413 103.753 35.4587 104.606 34.648C105.502 33.8373 106.377 33.0053 107.23 32.152C108.083 31.2987 108.83 30.5307 109.47 29.848C110.153 29.1227 110.622 28.6107 110.878 28.312C110.963 28.2267 111.049 28.1413 111.134 28.056C111.262 27.928 111.39 27.864 111.518 27.864C111.817 27.864 111.966 28.0133 111.966 28.312C111.966 28.4827 111.625 28.9947 110.942 29.848C110.259 30.6587 109.406 31.6187 108.382 32.728C107.358 33.7947 106.313 34.8613 105.246 35.928C104.179 36.952 103.241 37.8267 102.43 38.552C101.662 39.2347 101.171 39.576 100.958 39.576ZM91.742 36.696C91.9127 36.696 92.1047 36.5893 92.318 36.376C94.494 34.4987 96.5633 32.4507 98.526 30.232C100.531 28.0133 102.409 25.752 104.158 23.448C103.945 23.0213 103.646 22.68 103.262 22.424C102.921 22.1253 102.515 21.976 102.046 21.976C101.193 21.976 100.254 22.3387 99.23 23.064C98.2487 23.7893 97.3313 24.6213 96.478 25.56C95.6247 26.456 94.942 27.2027 94.43 27.8C93.662 28.7387 92.9153 29.9547 92.19 31.448C91.5073 32.8987 91.166 34.2427 91.166 35.48C91.166 36.2907 91.358 36.696 91.742 36.696Z" fill="#363636"/>
<path d="M109.641 6.68C108.062 6.68 107.273 5.912 107.273 4.376C107.273 3.77867 107.721 3.288 108.617 2.904C109.513 2.47733 110.686 2.136 112.137 1.88C113.63 1.58133 115.209 1.368 116.873 1.24C118.579 1.112 120.222 1.02666 121.801 0.983997C123.379 0.898665 124.766 0.855999 125.961 0.855999C127.155 0.813333 127.945 0.792 128.329 0.792H131.849C135.134 0.792 138.462 0.855999 141.833 0.983997C145.203 1.112 148.446 1.47467 151.561 2.072C151.731 2.11466 152.03 2.2 152.457 2.328C152.926 2.41333 153.353 2.56266 153.737 2.776C154.163 2.94666 154.377 3.18133 154.377 3.48C154.377 3.69333 154.185 3.84267 153.801 3.928C153.459 3.97066 153.161 3.992 152.905 3.992C152.35 3.992 151.774 3.94933 151.177 3.864C150.579 3.77867 149.982 3.69333 149.385 3.608C147.635 3.30933 145.822 3.13867 143.944 3.096C142.11 3.05333 140.275 3.032 138.441 3.032C135.198 3.032 131.934 3.096 128.649 3.224C125.363 3.30933 122.099 3.544 118.857 3.928C118.771 4.26933 118.323 4.61067 117.513 4.952C116.702 5.29333 115.742 5.592 114.633 5.848C113.566 6.104 112.542 6.31733 111.561 6.488C110.622 6.616 109.982 6.68 109.641 6.68ZM114.825 43.16C113.886 43.16 113.225 42.8187 112.841 42.136C112.457 41.496 112.265 40.728 112.265 39.832C112.265 38.3813 112.585 36.6533 113.225 34.648C113.865 32.6 114.697 30.4453 115.72 28.184C116.745 25.88 117.833 23.6187 118.985 21.4C120.137 19.1387 121.225 17.0907 122.249 15.256C123.273 13.3787 124.126 11.864 124.809 10.712C125.321 9.816 125.854 8.856 126.409 7.832C126.963 6.76533 127.561 5.82667 128.201 5.016C128.414 4.71733 128.777 4.52533 129.289 4.44C129.801 4.35466 130.206 4.312 130.505 4.312C130.846 4.312 131.23 4.376 131.657 4.504C132.083 4.632 132.318 4.93067 132.361 5.4C132.361 5.74133 132.275 6.08267 132.105 6.424C131.977 6.72267 131.827 7 131.657 7.256C129.737 10.3707 127.817 13.3573 125.897 16.216C123.977 19.0747 122.185 22.1467 120.521 25.432C120.179 26.1147 119.667 27.0747 118.985 28.312C118.302 29.5067 117.598 30.8293 116.873 32.28C116.19 33.7307 115.593 35.16 115.081 36.568C114.611 37.976 114.377 39.2133 114.377 40.28C114.377 40.4507 114.398 40.728 114.441 41.112C114.526 41.496 114.761 41.688 115.145 41.688C115.358 41.688 115.465 41.88 115.465 42.264C115.465 42.4773 115.401 42.6693 115.273 42.84C115.187 43.0533 115.038 43.16 114.825 43.16ZM144.095 39.576C143.711 39.576 143.263 39.4053 142.751 39.064C142.282 38.7227 141.876 38.3387 141.535 37.912C141.194 37.4427 141.023 37.016 141.023 36.632C141.023 35.992 141.258 35.1387 141.727 34.072C142.196 32.9627 142.73 31.8747 143.327 30.808C143.967 29.7413 144.458 28.952 144.799 28.44C144.202 28.952 143.434 29.784 142.495 30.936C141.599 32.0453 140.618 33.24 139.551 34.52C138.527 35.7573 137.524 36.824 136.543 37.72C135.604 38.616 134.794 39.064 134.111 39.064C133.172 39.064 132.404 38.744 131.807 38.104C131.252 37.4213 130.975 36.6107 130.975 35.672C130.975 34.392 131.338 33.0267 132.063 31.576C132.788 30.0827 133.727 28.6533 134.879 27.288C136.074 25.88 137.354 24.6 138.719 23.448C140.127 22.296 141.492 21.3787 142.815 20.696C144.18 20.0133 145.396 19.672 146.463 19.672C147.615 19.672 148.554 19.9493 149.279 20.504C150.004 21.016 150.367 21.8053 150.367 22.872C150.367 23.0427 150.324 23.3627 150.239 23.832C150.196 24.3013 150.047 24.536 149.791 24.536C149.663 24.536 149.45 24.344 149.151 23.96C148.895 23.576 148.532 23.192 148.063 22.808C147.594 22.424 146.996 22.232 146.271 22.232C145.076 22.232 143.818 22.68 142.495 23.576C141.215 24.4293 139.978 25.5387 138.783 26.904C137.588 28.2267 136.543 29.592 135.647 31C134.751 32.408 134.068 33.624 133.599 34.648C133.471 34.9467 133.343 35.2667 133.215 35.608C133.13 35.9493 133.087 36.2907 133.087 36.632C133.087 37.016 133.194 37.208 133.407 37.208C133.62 37.208 134.068 36.9733 134.751 36.504C135.476 36.0347 135.988 35.6933 136.287 35.48C137.78 34.4133 139.188 33.1973 140.511 31.832C141.876 30.4667 143.092 29.0587 144.159 27.608C144.5 27.1387 144.82 26.6693 145.119 26.2C145.418 25.7307 145.716 25.2827 146.015 24.856C146.228 24.5573 146.442 24.408 146.655 24.408C147.124 24.408 147.572 24.728 147.999 25.368C148.468 26.008 148.703 26.5627 148.703 27.032C148.703 27.2453 148.66 27.3733 148.575 27.416C148.532 27.4587 148.404 27.5867 148.191 27.8C147.551 28.44 146.911 29.336 146.271 30.488C145.674 31.64 145.14 32.8133 144.671 34.008C144.244 35.16 143.924 36.1413 143.711 36.952C143.668 37.08 143.626 37.2507 143.583 37.464C143.583 37.6347 143.69 37.6987 143.903 37.656C144.33 37.528 145.012 37.0587 145.951 36.248C146.932 35.3947 147.978 34.4347 149.087 33.368C150.239 32.2587 151.263 31.2347 152.159 30.296C153.098 29.3573 153.716 28.696 154.015 28.312C154.1 28.2267 154.186 28.1413 154.271 28.056C154.399 27.928 154.527 27.864 154.655 27.864C154.954 27.864 155.103 28.0133 155.103 28.312C155.103 28.4827 154.762 28.9947 154.079 29.848C153.396 30.6587 152.543 31.6187 151.519 32.728C150.495 33.7947 149.45 34.8613 148.383 35.928C147.316 36.952 146.378 37.8267 145.567 38.552C144.799 39.2347 144.308 39.576 144.095 39.576ZM161.34 41.688C160.828 41.688 160.295 41.56 159.74 41.304C159.228 41.0907 158.716 40.792 158.204 40.408C157.649 39.9387 157.116 39.2773 156.604 38.424C156.092 37.5707 155.665 36.6747 155.324 35.736L150.396 41.112C150.268 41.24 150.183 41.304 150.14 41.304C149.969 41.304 149.884 41.176 149.884 40.92C149.884 40.536 150.012 40.216 150.268 39.96L155.004 34.584C154.876 34.072 154.812 33.5813 154.812 33.112C154.513 32.8987 154.108 32.6427 153.596 32.344C153.127 32.0027 152.892 31.448 152.892 30.68C152.892 29.784 153.169 28.9093 153.724 28.056C154.279 27.2027 154.748 26.776 155.132 26.776C155.431 26.776 155.58 27.032 155.58 27.544C155.58 27.7147 155.58 28.1627 155.58 28.888C155.623 29.6133 155.665 30.36 155.708 31.128C155.751 31.8533 155.793 32.344 155.836 32.6C156.092 32.7707 156.305 32.8773 156.476 32.92C158.14 31 159.889 29.016 161.724 26.968C163.559 24.92 165.201 23.1707 166.652 21.72C167.377 20.6107 168.167 19.672 169.02 18.904C169.916 18.136 170.94 17.752 172.092 17.752C172.903 17.752 173.479 17.9013 173.82 18.2C174.161 18.4987 174.332 18.84 174.332 19.224C174.332 19.608 174.161 19.9707 173.82 20.312C173.521 20.6107 173.073 20.76 172.476 20.76C171.537 20.7173 170.727 20.76 170.044 20.888C169.361 20.9733 168.871 21.272 168.572 21.784C168.273 22.3387 167.932 23.256 167.548 24.536C167.164 25.816 166.78 27.2667 166.396 28.888C166.055 30.5093 165.756 32.088 165.5 33.624C166.396 33.4533 167.249 33.24 168.06 32.984C168.913 32.6853 169.831 32.1947 170.812 31.512C171.793 30.8293 172.924 29.8267 174.204 28.504C174.417 28.248 174.631 28.12 174.844 28.12C174.972 28.12 175.036 28.2053 175.036 28.376C175.036 28.4613 174.993 28.6107 174.908 28.824C174.823 29.0373 174.652 29.3147 174.396 29.656C173.884 30.3387 173.244 31.0213 172.476 31.704C171.751 32.344 171.111 32.8347 170.556 33.176C169.404 33.8587 168.316 34.2853 167.292 34.456C166.268 34.584 165.607 34.6693 165.308 34.712C165.137 35.608 164.988 36.3547 164.86 36.952C164.732 37.5067 164.647 37.912 164.604 38.168C164.391 39.4053 163.964 40.3013 163.324 40.856C162.727 41.4107 162.065 41.688 161.34 41.688ZM162.812 33.624C163.025 32.6427 163.303 31.3413 163.644 29.72C164.028 28.0987 164.54 26.4773 165.18 24.856C164.071 26.0933 162.833 27.4373 161.468 28.888C160.145 30.3387 158.844 31.7893 157.564 33.24C158.375 33.4107 159.249 33.5387 160.188 33.624C161.127 33.6667 162.001 33.6667 162.812 33.624ZM160.38 38.616C160.721 38.616 161.063 38.3813 161.404 37.912C161.788 37.4 162.151 36.4613 162.492 35.096C162.492 34.968 162.513 34.8827 162.556 34.84C161.532 34.7973 160.529 34.7333 159.548 34.648C158.609 34.52 157.713 34.3067 156.86 34.008L156.348 34.584C156.689 35.2667 157.095 35.9707 157.564 36.696C158.033 37.3787 158.567 37.8693 159.164 38.168C159.377 38.296 159.591 38.4027 159.804 38.488C160.017 38.5733 160.209 38.616 160.38 38.616ZM186.131 40.024C184.168 40.024 182.803 39.384 182.035 38.104C181.267 36.824 180.883 35.2667 180.883 33.432C180.883 32.408 180.968 31.3627 181.139 30.296C181.31 29.1867 181.523 28.0987 181.779 27.032C181.267 27.3307 180.648 27.8 179.923 28.44C179.198 29.08 178.366 29.8907 177.427 30.872C176.702 32.3227 176.062 33.7307 175.507 35.096C174.952 36.4187 174.334 37.6347 173.651 38.744C173.523 38.9147 173.352 39.0213 173.139 39.064C172.926 39.1067 172.712 39.128 172.499 39.128C171.603 39.128 171.155 38.7227 171.155 37.912C171.155 36.9733 171.624 36.0773 172.563 35.224L177.171 27.032C176.787 27.3307 176.424 27.6507 176.083 27.992C175.742 28.3333 175.358 28.696 174.931 29.08C174.76 29.2507 174.568 29.336 174.355 29.336C174.184 29.336 174.099 29.2507 174.099 29.08C174.099 28.9093 174.206 28.6747 174.419 28.376C175.4 27.1387 176.595 25.7733 178.003 24.28C179.454 22.744 181.032 20.6747 182.739 18.072C183.294 17.2187 184.083 16.152 185.107 14.872C186.131 13.592 187.24 12.2267 188.435 10.776C189.672 9.32533 190.91 7.96 192.147 6.68C193.384 5.35733 194.472 4.248 195.411 3.352C195.88 2.968 196.286 2.648 196.627 2.392C196.968 2.136 197.224 1.98667 197.395 1.944C197.779 1.944 198.142 2.15733 198.483 2.584C198.824 3.01067 199.016 3.45867 199.059 3.928C199.059 4.39733 198.888 4.71733 198.547 4.888C198.035 5.31467 197.544 5.69867 197.075 6.04C196.648 6.38133 196.2 6.76533 195.731 7.192C194.579 8.216 193.299 9.47467 191.891 10.968C190.483 12.4613 189.054 14.0613 187.603 15.768C186.195 17.4747 184.83 19.2027 183.507 20.952C182.227 22.6587 181.096 24.28 180.115 25.816C180.2 25.9013 180.286 25.944 180.371 25.944C180.499 25.944 180.648 25.88 180.819 25.752C181.032 25.5813 181.288 25.368 181.587 25.112C183.08 23.832 184.702 22.5307 186.451 21.208C188.2 19.8427 189.886 18.6053 191.507 17.496C191.976 17.1973 192.446 16.9413 192.915 16.728C193.427 16.472 193.96 16.344 194.515 16.344C194.856 16.344 195.176 16.408 195.475 16.536C195.816 16.6213 196.072 16.792 196.243 17.048C196.67 17.176 197.075 17.3893 197.459 17.688C197.886 17.9867 198.099 18.392 198.099 18.904C198.099 19.544 197.779 20.1627 197.139 20.76C196.499 21.3147 195.944 21.7627 195.475 22.104C194.024 23.0427 192.318 23.8533 190.355 24.536C188.435 25.176 186.558 25.6667 184.723 26.008C184.424 27.3307 184.147 28.696 183.891 30.104C183.678 31.4693 183.571 32.728 183.571 33.88C183.571 35.0747 183.72 36.056 184.019 36.824C184.318 37.592 184.872 37.976 185.683 37.976C186.152 37.976 186.728 37.7627 187.411 37.336C188.136 36.8667 188.862 36.3333 189.587 35.736C190.355 35.096 191.038 34.4773 191.635 33.88C192.275 33.2827 192.766 32.8347 193.107 32.536C193.491 32.1947 194.046 31.6827 194.771 31C195.496 30.3173 196.2 29.6347 196.883 28.952C197.608 28.2693 198.099 27.7787 198.355 27.48C198.398 27.4373 198.462 27.416 198.547 27.416C198.76 27.416 198.867 27.5653 198.867 27.864C198.867 28.2053 198.611 28.6533 198.099 29.208L197.011 30.424C195.262 32.3867 193.534 34.264 191.827 36.056C190.163 37.8053 188.691 39.0213 187.411 39.704C186.984 39.9173 186.558 40.024 186.131 40.024ZM185.171 24.344C185.64 24.2587 186.366 24.0667 187.347 23.768C188.328 23.4693 189.331 23.0853 190.355 22.616C191.422 22.1467 192.339 21.656 193.107 21.144C193.918 20.5893 194.387 20.0347 194.515 19.48C194.387 19.1813 194.152 19.032 193.811 19.032C193.512 19.032 192.958 19.2667 192.147 19.736C191.336 20.1627 190.462 20.696 189.523 21.336C188.584 21.9333 187.71 22.5307 186.899 23.128C186.088 23.6827 185.512 24.088 185.171 24.344ZM199.272 38.424C196.712 38.424 195.432 37.1653 195.432 34.648C195.432 33.6667 195.688 32.536 196.2 31.256C196.755 29.9333 197.48 28.6107 198.376 27.288C199.272 25.9653 200.275 24.7493 201.384 23.64C202.493 22.488 203.624 21.5707 204.776 20.888C205.971 20.1627 207.08 19.8 208.104 19.8C208.445 19.8 208.68 19.8853 208.808 20.056C208.979 20.184 209.107 20.4187 209.192 20.76C209.277 20.9307 209.341 21.1227 209.384 21.336C209.427 21.5493 209.491 21.7627 209.576 21.976C209.747 22.2747 209.896 22.5733 210.024 22.872C210.152 23.1707 210.216 23.4907 210.216 23.832C210.216 24.2587 210.109 24.6427 209.896 24.984C209.683 25.2827 209.427 25.56 209.128 25.816C208.701 26.2 208.061 26.6907 207.208 27.288C206.355 27.8427 205.416 28.4187 204.392 29.016C203.411 29.5707 202.451 30.0613 201.512 30.488C200.616 30.9147 199.891 31.1707 199.336 31.256C198.952 31.8533 198.547 32.6 198.12 33.496C197.736 34.3493 197.544 35.1387 197.544 35.864C197.544 36.248 197.629 36.5893 197.8 36.888C198.013 37.1867 198.333 37.336 198.76 37.336C199.443 37.336 200.339 37.016 201.448 36.376C202.6 35.6933 203.795 34.8827 205.032 33.944C206.269 32.9627 207.4 32.024 208.424 31.128C209.491 30.1893 210.28 29.464 210.792 28.952L212.84 26.776C213.096 26.52 213.373 26.392 213.672 26.392C213.928 26.392 214.056 26.4987 214.056 26.712C214.056 26.968 213.693 27.5013 212.968 28.312C212.243 29.08 211.368 29.9547 210.344 30.936C209.363 31.8747 208.445 32.7493 207.592 33.56C206.739 34.328 206.184 34.8187 205.928 35.032C205.032 35.8 204.008 36.568 202.856 37.336C201.704 38.0613 200.509 38.424 199.272 38.424ZM200.424 29.592C200.851 29.336 201.491 28.9307 202.344 28.376C203.24 27.8213 204.157 27.2027 205.096 26.52C206.035 25.8373 206.824 25.1547 207.464 24.472C208.147 23.7893 208.488 23.192 208.488 22.68C208.488 22.552 208.467 22.4453 208.424 22.36C208.381 22.3173 208.296 22.296 208.168 22.296C207.613 22.296 206.952 22.5947 206.184 23.192C205.416 23.7893 204.648 24.5147 203.88 25.368C203.112 26.1787 202.408 26.9893 201.768 27.8C201.171 28.568 200.723 29.1653 200.424 29.592ZM217.242 39.768C216.559 39.768 215.834 39.4267 215.066 38.744C214.34 38.0187 213.978 37.3147 213.978 36.632C213.978 35.7787 214.276 34.8187 214.874 33.752C215.471 32.6427 216.175 31.576 216.986 30.552C217.796 29.528 218.5 28.6533 219.098 27.928C219.695 27.16 219.994 26.648 219.994 26.392V26.264C219.61 25.9227 219.247 25.6027 218.906 25.304C218.564 24.9627 218.095 24.792 217.498 24.792C217.071 24.792 216.516 25.048 215.834 25.56C215.194 26.072 214.532 26.6693 213.85 27.352C213.167 28.0347 212.548 28.6747 211.994 29.272C211.439 29.8693 211.034 30.2747 210.778 30.488C210.607 30.6587 210.436 30.7653 210.266 30.808C210.138 30.8507 210.031 30.872 209.946 30.872C209.775 30.872 209.69 30.7867 209.69 30.616C209.69 30.4453 209.775 30.2747 209.946 30.104C210.628 29.208 211.418 28.2907 212.314 27.352C213.21 26.4133 214.02 25.56 214.746 24.792C215.471 23.9813 215.898 23.4053 216.026 23.064C216.367 22.0827 216.708 21.208 217.05 20.44C217.434 19.672 218.031 18.9467 218.842 18.264C219.183 17.9227 219.588 17.6453 220.058 17.432C220.527 17.2187 220.996 17.112 221.466 17.112C221.892 17.112 222.234 17.24 222.49 17.496C222.788 17.7093 222.938 18.0507 222.938 18.52C222.938 19.032 222.703 19.544 222.234 20.056C221.807 20.568 221.295 21.0587 220.698 21.528C220.1 21.9547 219.567 22.3387 219.098 22.68C218.671 23.0213 218.479 23.2987 218.522 23.512C218.778 23.6827 219.268 23.896 219.994 24.152C220.762 24.408 221.295 24.536 221.594 24.536C221.935 24.536 222.255 24.472 222.554 24.344C222.852 24.216 223.151 24.152 223.45 24.152C223.876 24.152 224.303 24.28 224.73 24.536C225.156 24.792 225.37 25.176 225.37 25.688C225.37 26.1147 225.199 26.52 224.858 26.904C224.559 27.2453 224.239 27.544 223.898 27.8C223.386 28.184 222.703 28.76 221.85 29.528C220.996 30.296 220.122 31.1493 219.226 32.088C218.372 33.0267 217.626 33.9653 216.986 34.904C216.388 35.8 216.09 36.5893 216.09 37.272C216.09 37.4427 216.132 37.6133 216.218 37.784C216.26 37.8267 216.346 37.848 216.474 37.848C217.327 37.848 218.287 37.464 219.354 36.696C220.42 35.928 221.487 34.9893 222.554 33.88C223.663 32.7707 224.687 31.6827 225.626 30.616C226.607 29.5067 227.439 28.6533 228.122 28.056C228.207 27.9707 228.314 27.8853 228.442 27.8C228.57 27.7147 228.698 27.672 228.826 27.672C229.039 27.672 229.146 27.8213 229.146 28.12C229.146 28.2907 228.847 28.7173 228.25 29.4C227.695 30.0827 226.97 30.8933 226.074 31.832C225.178 32.7707 224.239 33.7307 223.258 34.712C222.319 35.6933 221.444 36.568 220.634 37.336C219.823 38.0613 219.247 38.5733 218.906 38.872C218.436 39.256 218.095 39.4907 217.882 39.576C217.668 39.704 217.455 39.768 217.242 39.768Z" fill="#0FD815"/>
</svg>
